<svg xmlns="http://www.w3.org/2000/svg" viewBox="0 0 2843 2000"><defs><style>.cls-1{isolation:isolate;}.cls-2,.cls-30{fill:#fff;}.cls-3{fill:#f7cc7f;}.cls-31,.cls-4{fill:#50bfa5;}.cls-5{fill:#07345a;}.cls-27,.cls-6{fill:#f47458;}.cls-7{fill:#355389;}.cls-8{fill:#5184ce;}.cls-9{fill:#466eb6;}.cls-10,.cls-11{fill:#184655;}.cls-10,.cls-15{opacity:0.3;}.cls-10,.cls-15,.cls-31{mix-blend-mode:multiply;}.cls-12{fill:#cce6ff;}.cls-13{fill:#e9ffff;}.cls-14,.cls-15,.cls-17{fill:#9bc1f9;}.cls-14,.cls-29{opacity:0.6;}.cls-16{fill:#13375b;}.cls-18{fill:#96d9c9;}.cls-19{fill:#a34b3d;}.cls-20{fill:#b75742;}.cls-21{fill:#f7a491;}.cls-22{fill:#e0973f;}.cls-23{fill:#dd513a;}.cls-24{fill:#0e2e35;}.cls-25{fill:#e25a44;}.cls-26{fill:#f38b80;}.cls-27,.cls-31{opacity:0.5;}.cls-28{fill:#f48c7f;}.cls-29{fill:#c5ddf9;}.cls-30{mix-blend-mode:soft-light;}.cls-32{fill:#f8a492;}</style></defs><g class="cls-1"><g id="Layer_1" data-name="Layer 1"><rect class="cls-2" width="2843" height="2000"/><path class="cls-3" d="M2059.17,488.77c-38.54,151.69,53.5,306.45,205.19,345s306.44-53.5,345-205.18-53.5-306.45-205.18-345S2097.72,337.09,2059.17,488.77Zm70.11,8.23h0c34.06-113.21,153.45-177.37,266.67-143.31h0c113.21,34.07,177.36,153.46,143.3,266.67h0c-34.07,113.21-153.46,177.37-266.67,143.31h0C2159.37,729.6,2095.21,610.21,2129.28,497Z"/><path class="cls-3" d="M1862.49,489.21c1.34,6.78,7.47,9.15,22.62,15.15,27.08,10.75,54.18,21.49,80.86,33.17,4.2,1.84,8.4,8.39,8.92,13.16,3.08,28.35,4.45,56.9,7.83,85.21,1,8.77.19,13.44-7.7,18.39-31.51,19.81-62.48,40.49-93.3,60.63,7.7,33.05,46.53,107.35,67.28,128.13,32.69-13.76,66.3-27.31,99.34-42.15,10.28-4.62,15.53-3.73,24.1,4.46,19.87,19,41.55,36.24,63.44,52.95,8.87,6.77,13.59,12.07,10.72,24.26-7.45,31.6-13,63.65-19.89,95.38-1.86,8.53-.24,13.86,8.18,16.47q59.43,18.39,118.87,36.72c9.74,3,11.24-5,13.67-10.73,12.31-29,24.78-58,36.1-87.42,4.25-11,9.95-14.68,21.95-15,31.75-1,63.44-4.06,97.59-6.48l65.42,99.33c46-15.24,87.46-38,126.71-68.23l-44.79-107.63c23.5-29.78,45.89-56.88,66.62-85.18,6-8.2,10.71-9.55,19.72-7.57,31.25,6.87,62.73,12.76,94,19.41,6.76,1.44,11.73,1.7,15.2-5.69,17.51-37.37,31.65-75.71,37.36-116.91,1.27-9.19-2-12.81-9.6-15.94-30.45-12.58-60.67-25.74-91.18-38.19-7.39-3-10.48-6.16-11.15-15.17-2.33-31.27-6-62.48-10.48-93.52-1.14-7.93,1.38-11,7-14.69,31.1-20.49,62-41.2,93.84-62.36-16.13-45.29-36.71-87.33-66.18-126l-112.17,46.68-91.69-76.05c5.6-28,12.29-60.12,18.44-92.38,5-26.48,8.83-23-17.77-34.16-2.54-1.07-4.69-3-7-4.61L2434,91.13c-5.56-.63-11.39-.4-16.63-2.06-13.62-4.32-21.29-1.22-26.72,13.37-11.31,30.4-24.53,60.1-37.67,89.78-1.73,3.88-7.38,7.94-11.65,8.48-27.84,3.52-56.07,4.64-83.61,9.6-13.48,2.43-19.15-1.25-25.81-11.76-18.86-29.81-39-58.84-60.53-91.12L2044.94,173.8c3.31,8.39,5.13,13.25,7.13,18,12.3,29.53,24.33,59.19,37.15,88.5,3.64,8.32,1.79,13-3.91,19.77-19.58,23.26-37.66,47.78-57.08,71.18-3,3.63-10.45,6.18-15.18,5.36-25.85-4.49-51.46-10.41-77.23-15.42-20.85-4.05-28.61-5.48-35.21,1.33Zm186.93-2.91a293.9,293.9,0,1,1,32.25,222.61A291.93,291.93,0,0,1,2049.42,486.3Z"/><path class="cls-4" d="M258.91,882c4.37,3.41,9.34,1.62,21.69-2.69,22.09-7.72,44.2-15.43,66.54-22.37,3.52-1.09,9.51.68,12.33,3.3,16.78,15.59,32.62,32.21,49.55,47.63,5.25,4.78,7.18,8.06,5,15.21-8.73,28.59-16.66,57.43-24.79,85.87,22.06,16,84.69,40.72,108.21,42.43,12.62-25.54,25.91-51.44,38.17-77.82,3.81-8.21,7.47-10.43,17-10,22.06,1.09,44.29.17,66.37-1.2,8.94-.55,14.59.19,19.26,9.1,12.09,23.1,25.58,45.47,38.06,68.37,3.35,6.16,7.14,8.55,13.63,5.7q45.75-20.07,91.48-40.19c7.5-3.29,4.2-8.94,2.66-13.7-7.79-24.1-15.44-48.25-24-72.06-3.22-8.94-1.67-14.15,5.41-20.68,18.76-17.3,36.39-35.82,55.85-55.23l92,25.92c19.93-33.44,33.1-69.09,41.07-108l-83.78-41.81c-1.38-30.44-2-58.66-4.32-86.75-.67-8.13,1.48-11.42,8-15,22.59-12.26,44.8-25.23,67.31-37.65,4.86-2.68,8-5.14,6.24-11.45-9-31.9-20.58-62.61-38.78-90.63-4.05-6.24-8-6.71-14.2-4.63-25.11,8.37-50.37,16.26-75.45,24.74-6.07,2.05-9.6,1.77-14.74-3.35-17.85-17.76-36.49-34.78-55.53-51.28-4.86-4.22-4.95-7.41-3.5-12.58,8.12-28.79,16-57.63,24.21-87.2-33.61-19-68.2-33.73-106.42-41.71l-43.57,87.31-95.66,2c-11.3-19.92-24.14-43-37.37-65.78C475.86,307.14,480,307.26,458,314.46c-2.1.69-4.45.61-6.68.89l-54.64,24.48c-3.71,2.55-7.13,5.75-11.18,7.5-10.54,4.54-13.57,10.45-9.2,22.16,9.12,24.4,16.71,49.39,24.32,74.32,1,3.27-.3,8.7-2.61,11.27-15.06,16.78-31.61,32.3-45.73,49.79-6.9,8.56-12.28,9.31-21.85,6.42-27.12-8.18-54.58-15.24-84.65-23.5-14.14,36-27.93,71.2-41.87,106.76,6.42,3.35,10.08,5.34,13.81,7.2,23,11.47,45.89,23.16,69.09,34.21,6.58,3.14,7.91,6.95,8,14.06.35,24.42,2.26,48.81,2.77,73.23.08,3.79-3.1,9.25-6.4,11.24-18.07,10.86-36.73,20.73-55,31.23-14.79,8.51-20.25,11.72-20.68,19.32Zm112-100A236,236,0,1,1,507.49,900.17,234.52,234.52,0,0,1,370.88,782Z"/><path class="cls-3" d="M532.22,235.56l9-16.48-8.45-16.76a2.58,2.58,0,0,1,2.77-3.7l18.41,3.47,13.28-13.24a2.57,2.57,0,0,1,4.37,1.5L574,209l16.65,8.58a2.58,2.58,0,0,1-.07,4.63l-16.92,8-3,18.54a2.57,2.57,0,0,1-4.41,1.36l-12.86-13.66-18.5,2.88A2.58,2.58,0,0,1,532.22,235.56Z"/><path class="cls-5" d="M1511.92,313.67l7.67-12.45-6.16-2.5a2.63,2.63,0,0,1-1.45-3.42h0a2.63,2.63,0,0,1,3.43-1.45l7.1,2.87,6.85-11.18-6.57-2.66a2.63,2.63,0,0,1-1.45-3.43h0a2.63,2.63,0,0,1,3.43-1.45l7.52,3.05,8-12.81a2.63,2.63,0,0,1,3.22-1.05l1.15.47a2.63,2.63,0,0,1,1.25,3.81l-7.4,12.09,10.9,4.42,8-12.81a2.63,2.63,0,0,1,3.22-1.05l1.26.51a2.63,2.63,0,0,1,1.25,3.81l-7.4,12.09,6.16,2.49a2.65,2.65,0,0,1,1.45,3.43h0a2.63,2.63,0,0,1-3.43,1.45l-7.1-2.88L1546,306.25l6.58,2.66a2.65,2.65,0,0,1,1.45,3.43h0a2.63,2.63,0,0,1-3.43,1.45l-7.52-3.05L1534.94,324a2.64,2.64,0,0,1-3.23,1.06l-1.34-.55a2.64,2.64,0,0,1-1.26-3.82l7.67-12.45-10.9-4.42L1517.75,317a2.63,2.63,0,0,1-3.23,1l-1.34-.54A2.64,2.64,0,0,1,1511.92,313.67Zm27.78-10,6.85-11.19-10.9-4.42-6.85,11.18Z"/><path class="cls-6" d="M1462.73,530.43l-10.37,55.16c.86,2.8,3.56,3.52,10.22,5.38,11.91,3.31,23.83,6.62,35.61,10.35,1.86.59,3.93,3.16,4.36,5.15,2.58,11.82,4.44,23.81,7.14,35.6.84,3.66.69,5.66-2.42,8.11-12.41,9.78-24.54,19.9-36.64,29.78,4.74,13.61,24.47,43.21,34.16,51,13.18-7.28,26.75-14.51,40-22.26,4.13-2.41,6.39-2.27,10.37.8A318,318,0,0,0,1584.33,729c4.05,2.45,6.28,4.48,5.62,9.75-1.72,13.67-2.61,27.44-4.1,41.14-.4,3.68.53,5.86,4.2,6.58l51.81,10.15c4.24.83,4.52-2.62,5.28-5.15,3.89-12.8,7.85-25.59,11.3-38.51,1.3-4.85,3.54-6.64,8.58-7.34,13.36-1.85,26.59-4.57,40.89-7.13l32.08,39a180.29,180.29,0,0,0,50.39-34.5l-23.74-43.4c8.57-13.62,16.8-26.06,24.27-38.94,2.17-3.73,4.09-4.51,8-4.08,13.5,1.49,27,2.56,40.56,4,2.92.3,5,.18,6.15-3.09,5.71-16.56,10-33.37,10.51-51,.12-3.93-1.44-5.31-4.77-6.29-13.42-3.93-26.76-8.13-40.19-12-3.26-.94-4.71-2.12-5.4-5.9-2.38-13.09-5.34-26.09-8.63-39-.84-3.29.09-4.71,2.28-6.51,12.2-10,24.32-20.18,36.79-30.54-8.85-18.38-19.42-35.2-33.6-50.18l-45.23,24.75-42.11-28c1.1-12,2.47-25.92,3.61-39.81.94-11.4,2.7-10.1-9-13.61a19.4,19.4,0,0,1-3.17-1.63l-31.09-5.85c-2.37,0-4.82.35-7.11-.12-5.94-1.21-9,.45-10.67,6.84-3.4,13.34-7.64,26.47-11.85,39.58a7.35,7.35,0,0,1-4.54,4.11c-11.59,2.74-23.45,4.48-34.85,7.81-5.58,1.64-8.13.34-11.41-3.8-9.31-11.72-19.09-23.07-29.65-35.72l-50.35,33.7c1.77,3.39,2.76,5.36,3.82,7.29,6.52,11.91,12.93,23.88,19.66,35.67,1.91,3.35,1.34,5.41-.76,8.52-7.21,10.7-13.74,21.86-20.88,32.61a8,8,0,0,1-6.16,2.94c-11.11-.73-22.19-2.07-33.29-3C1468.55,527.51,1465.21,527.26,1462.73,530.43Zm102.55,46.43a90.84,90.84,0,0,1,106.07-72.47h0a90.84,90.84,0,0,1,72.48,106.07h0a90.84,90.84,0,0,1-106.08,72.47h0a90.83,90.83,0,0,1-72.47-106.07Z"/><polygon class="cls-7" points="1102.08 228.05 1134.74 231.99 1120.81 206.64 1102.08 228.05"/><path class="cls-6" d="M1222,509.54c-1,11,8.47,21.12,19,23,10.9,1.9,20.61-5.2,24.36-15.24,7.4-19.81-14.28-35.44-26-23.45-11,11.19-7.5,27.81,4.34,27.82,4.47,0,11.66-3.75,8.81-9.16a1.8,1.8,0,0,0-3.1,0c-1.44,2.44-1.32,2.53-2,3.08a6.1,6.1,0,0,1-3.88,1.12c-12.07-.21-4-27.81,10.17-21.12,7.81,3.67,10.11,12.55,7.4,20.3-2.6,7.46-9.6,13.24-17.7,12.72-9.67-.62-17.78-9.51-18.4-19a1.48,1.48,0,0,0-3,0Z"/><path class="cls-4" d="M1818.62,100.78l9.77,4.2s16.3-3.64,18.12-6.71,2.89-10.8,5.17-10.8a7,7,0,0,1,7.21,6.54c.44,3.94-6.17,14.58-5.37,15.85.5.8,6,3.37,10.12,5.18a7.88,7.88,0,0,1,4.68,6.71h0a4.21,4.21,0,0,1-3.06,4.33l-3,.84.69,3a4.22,4.22,0,0,1-3.14,5l-2.29.53.57,1.86a4.22,4.22,0,0,1-3.23,5.38l-2,.38,0,.52a4.21,4.21,0,0,1-3.51,4.47l-2,.32-26-11.17a19.28,19.28,0,0,1-6.46-4.51l-8.5-5.44a2.21,2.21,0,0,1-.82-2.75l10.09-22.67A2.19,2.19,0,0,1,1818.62,100.78Z"/><rect class="cls-8" x="1334.96" y="566.08" width="241.89" height="123.23" rx="32.7"/><polygon class="cls-9" points="1310.36 1780.81 1123.44 1866.97 1123.44 1886.05 1789.11 1886.05 1789.11 1866.97 1600.51 1780.81 1310.36 1780.81"/><rect class="cls-9" x="1310.36" y="1411.54" width="290.27" height="369.43"/><path class="cls-9" d="M2333.84,1527.43V694.36a71.67,71.67,0,0,0-71.67-71.67H646.93a71.67,71.67,0,0,0-71.67,71.67v833.07Z"/><rect class="cls-10" x="1123.44" y="1866.97" width="665.67" height="19.08"/><rect class="cls-10" x="1310.36" y="1737.46" width="290.15" height="43.35"/><path class="cls-8" d="M575.26,1527.43v133.5c0,27.76,18.35,50.27,41,50.27H2292.84c22.65,0,41-22.51,41-50.27v-133.5Z"/><path class="cls-11" d="M1473.65,598.81a16.33,16.33,0,1,1-16.33-16.33A16.33,16.33,0,0,1,1473.65,598.81Z"/><path class="cls-12" d="M2292.67,1491.25V696.59c0-20.83-17.49-37.72-39.07-37.72H655.5c-21.58,0-39.08,16.89-39.08,37.72v794.66Z"/><rect class="cls-13" x="690.03" y="723.02" width="1007.51" height="703.02"/><rect class="cls-8" x="690.03" y="723.02" width="1007.51" height="82.31"/><rect class="cls-14" x="2056.09" y="898.9" width="68.77" height="532.31"/><rect class="cls-14" x="1960.05" y="1061.27" width="68.77" height="369.94"/><rect class="cls-14" x="2153.51" y="1014.23" width="68.77" height="416.98"/><rect class="cls-14" x="1864.01" y="997.84" width="68.77" height="433.38"/><rect class="cls-14" x="1767.96" y="1126.33" width="68.77" height="304.88"/><rect class="cls-15" x="2056.09" y="1021.59" width="68.77" height="409.63"/><rect class="cls-15" x="1960.05" y="1146.53" width="68.77" height="284.68"/><rect class="cls-15" x="2153.51" y="1110.33" width="68.77" height="320.88"/><rect class="cls-15" x="1864.01" y="1097.72" width="68.77" height="333.5"/><rect class="cls-15" x="1767.96" y="1196.6" width="68.77" height="234.62"/><rect class="cls-14" x="724.8" y="839.23" width="929.93" height="119.36"/><rect class="cls-14" x="1056.19" y="992.48" width="598.54" height="30.59"/><rect class="cls-8" x="724.8" y="992.48" width="294.45" height="353.04"/><rect class="cls-14" x="1056.19" y="1056.97" width="598.54" height="30.59"/><rect class="cls-14" x="1056.19" y="1250.44" width="598.54" height="30.59"/><rect class="cls-14" x="1056.19" y="1314.93" width="598.54" height="30.59"/><path class="cls-3" d="M304.45,1119.08l559-1a15.21,15.21,0,0,1,15.23,15.18L880,1869.88a15.21,15.21,0,0,1-15.18,15.23l-559,1a15.21,15.21,0,0,1-15.23-15.18l-1.32-736.63A15.19,15.19,0,0,1,304.45,1119.08Z"/><rect class="cls-2" x="320.62" y="1139.98" width="528.07" height="720" transform="translate(-2.7 1.06) rotate(-0.1)"/><path class="cls-16" d="M698.43,1108.2a5.86,5.86,0,0,0-5.87-5.85l-221.73.4a5.85,5.85,0,0,0-5.85,5.87l0,23.05,233.45-.42Z"/><path class="cls-16" d="M581.64,1074.53a35,35,0,1,0,35,34.9A35,35,0,0,0,581.64,1074.53Zm.11,57.39a22.43,22.43,0,1,1,22.38-22.46A22.43,22.43,0,0,1,581.75,1131.92Z"/><path class="cls-7" d="M694.84,1102.8a5.86,5.86,0,0,1,3.59,5.4l0,23-233.45.42a28.9,28.9,0,0,0,29,28.85l175.63-.31a28.91,28.91,0,0,0,28.86-29l0-23A5.86,5.86,0,0,0,694.84,1102.8Z"/><path class="cls-17" d="M470.83,1102.75h0a5.86,5.86,0,0,0-4.86,2.59A5.86,5.86,0,0,1,470.83,1102.75Z"/><path class="cls-17" d="M465.24,1106.88a5.78,5.78,0,0,1,.44-1.06A5.78,5.78,0,0,0,465.24,1106.88Z"/><path class="cls-11" d="M787.48,1351.9l-75.06.14-.14-75.07,75.07-.14Zm-72-2.94,68.93-.12-.12-68.93-68.94.12Z"/><path class="cls-11" d="M787.71,1476.81l-75.07.13-.13-75.06,75.06-.14Zm-72-2.94,68.94-.12-.13-68.94-68.93.13Z"/><path class="cls-11" d="M787.93,1601.72l-75.06.13-.14-75.06,75.07-.14Zm-72-2.94,68.93-.12-.12-68.94-68.94.13Z"/><path class="cls-11" d="M788.16,1726.63l-75.07.13-.13-75.07,75.06-.13Zm-72-2.94,68.94-.13-.13-68.93-68.93.13Z"/><rect class="cls-17" x="359.57" y="1278.85" width="321.27" height="10.8" transform="translate(-2.31 0.94) rotate(-0.1)"/><rect class="cls-17" x="359.63" y="1309.44" width="321.27" height="10.8" transform="translate(-2.37 0.94) rotate(-0.1)"/><rect class="cls-17" x="359.68" y="1340.04" width="321.27" height="10.8" transform="translate(-2.42 0.94) rotate(-0.1)"/><rect class="cls-17" x="359.8" y="1408.02" width="321.27" height="10.8" transform="translate(-2.54 0.94) rotate(-0.1)"/><rect class="cls-17" x="359.86" y="1438.62" width="321.27" height="10.8" transform="translate(-2.6 0.94) rotate(-0.1)"/><rect class="cls-17" x="359.92" y="1469.22" width="321.27" height="10.8" transform="translate(-2.65 0.94) rotate(-0.1)"/><rect class="cls-17" x="360.03" y="1530.41" width="321.27" height="10.8" transform="translate(-2.76 0.94) rotate(-0.1)"/><rect class="cls-17" x="360.08" y="1561.01" width="321.27" height="10.8" transform="translate(-2.82 0.94) rotate(-0.1)"/><rect class="cls-17" x="360.14" y="1591.61" width="321.27" height="10.8" transform="translate(-2.87 0.94) rotate(-0.1)"/><rect class="cls-17" x="360.25" y="1652.8" width="321.27" height="10.8" transform="translate(-2.98 0.94) rotate(-0.1)"/><rect class="cls-17" x="360.3" y="1683.4" width="321.27" height="10.8" transform="translate(-3.04 0.94) rotate(-0.1)"/><rect class="cls-17" x="360.36" y="1714" width="321.27" height="10.8" transform="translate(-3.09 0.94) rotate(-0.1)"/><rect class="cls-17" x="360.5" y="1793.06" width="370.64" height="10.8" transform="translate(-3.24 0.99) rotate(-0.1)"/><rect class="cls-17" x="360.55" y="1819.18" width="443.73" height="10.8" transform="translate(-3.29 1.05) rotate(-0.1)"/><polygon class="cls-6" points="749.58 1339.63 726.27 1299.63 734.61 1294.77 748.14 1317.99 770.23 1264.99 779.14 1268.71 749.58 1339.63"/><polygon class="cls-6" points="749.81 1466.17 726.5 1426.18 734.84 1421.32 748.37 1444.53 770.46 1391.54 779.37 1395.25 749.81 1466.17"/><polygon class="cls-6" points="750.25 1713.59 726.94 1673.59 735.28 1668.73 748.81 1691.94 770.9 1638.95 779.82 1642.66 750.25 1713.59"/><polygon class="cls-6" points="776.23 1545.32 769.5 1538.53 750.32 1557.54 731.07 1538.6 724.37 1545.41 743.54 1564.26 724.44 1583.19 731.16 1589.97 750.35 1570.96 769.6 1589.9 776.29 1583.1 757.13 1564.24 776.23 1545.32"/><path class="cls-15" d="M374.36,1618.92a137.93,137.93,0,0,0-53.51,10.8l0,17.59A122.37,122.37,0,0,1,440.7,1860.24l26.35,0c1.89-1.7,3.75-3.46,5.56-5.28a138.35,138.35,0,0,0-98.25-236Z"/><path class="cls-15" d="M374.42,1656.43a100.2,100.2,0,0,0-53.5,15.51l0,9.58a92.87,92.87,0,1,1,.28,151.68v9.58a100.82,100.82,0,1,0,53.19-186.35Z"/><path class="cls-11" d="M471.85,1243.74v-36H457.51v-3.15H490.7v3.15H476.37v36Z"/><path class="cls-11" d="M527.33,1240.59v3.15H498.56v-39.12h27.75v3.15H503v13.7h16.85v3.15H503v16Z"/><path class="cls-11" d="M531.91,1234.38l3.89-1.3a14.45,14.45,0,0,0,5,6.18,13.45,13.45,0,0,0,7.51,2,12,12,0,0,0,7.38-2.09,6.52,6.52,0,0,0,2.8-5.5,6,6,0,0,0-1.83-4.48,16.94,16.94,0,0,0-6.22-3.21c-1.59-.51-3.71-1.13-6.34-1.85a40.36,40.36,0,0,1-5-1.62,13.6,13.6,0,0,1-5-3.49,7.12,7.12,0,0,1-1.47-4.57,9.06,9.06,0,0,1,3.7-7.66Q540,1204,546.51,1204a18,18,0,0,1,9.51,2.29,14.34,14.34,0,0,1,5.71,7l-3.8,1a12.65,12.65,0,0,0-4.63-5.4,13.13,13.13,0,0,0-7-1.74,10.62,10.62,0,0,0-6.53,1.87,5.86,5.86,0,0,0-2.5,4.9,5.12,5.12,0,0,0,1.62,3.83,11.92,11.92,0,0,0,5,2.54c.87.26,2.14.63,3.8,1.08a52.58,52.58,0,0,1,9.2,3.1,13.55,13.55,0,0,1,4.79,3.82,8.23,8.23,0,0,1,1.49,4.91,9.74,9.74,0,0,1-4,8.17q-4,3-10.85,3a19.16,19.16,0,0,1-10.13-2.43A16.48,16.48,0,0,1,531.91,1234.38Z"/><path class="cls-11" d="M581.76,1243.74v-36H567.42v-3.15h33.19v3.15H586.27v36Z"/><path class="cls-11" d="M609.19,1243.74v-39.12h4.48v39.12Z"/><path class="cls-11" d="M631.7,1207.45v36.29h-4.35v-39.12h7.3l23.21,33v-33h4.35v39.12h-4.78Z"/><path class="cls-11" d="M703.29,1239.35a15.32,15.32,0,0,1-5.73,3.87,21.11,21.11,0,0,1-7.69,1.29q-9,0-13.72-5.2t-4.71-15.06q0-9.76,4.81-15.06t13.62-5.31q6.51,0,10.4,2.81t5.77,8.83l-4.23.71a14,14,0,0,0-4.5-7,12,12,0,0,0-7.51-2.25q-6.54,0-10.11,4.38t-3.57,12.42q0,8.67,3.62,13.09t10.75,4.42a13.9,13.9,0,0,0,8.64-2.5,7.92,7.92,0,0,0,3.27-6.6V1228h-12v-2.94h16.89v18.65h-4Z"/><path class="cls-4" d="M1271.59,275l-10.19,39.74,31.19-17.52,93.16-34.35-68.66-1.9s-35.6,4.26-37.67,5.73S1271.59,275,1271.59,275Z"/><polygon class="cls-18" points="1244.43 247.03 1385.75 262.88 1271.59 275.01 1244.43 247.03"/><polygon class="cls-18" points="1312.12 321.06 1278.67 286.92 1385.75 262.88 1312.12 321.06"/><path class="cls-17" d="M1057.44,396.63a91.32,91.32,0,0,1,6.67-17.9l3,1.48c-1.33,2.68-2.52,5.43-3.56,8.17a88.38,88.38,0,0,0-2.87,9.08c-.23.9-.44,1.8-.65,2.7l-3.26-.73C1057,398.48,1057.2,397.54,1057.44,396.63Zm18.44-36.4a126.22,126.22,0,0,1,15-15.89l2.23,2.5a123.89,123.89,0,0,0-14.64,15.47Zm106.23,6-.53-.44,2.17-2.55.44.37a1.57,1.57,0,0,0,.32.14c1.75.66,6.52,1.23,9.38,0a14.22,14.22,0,0,0,6.1-5.46l2.82,1.82a17.77,17.77,0,0,1-7.56,6.7c-4,1.76-9.72.95-11.92.12A4.31,4.31,0,0,1,1182.11,366.21ZM1108.21,331a174.74,174.74,0,0,1,18.92-10.89l1.48,3a173,173,0,0,0-18.54,10.68Zm63.72,7.66a40.29,40.29,0,0,1,2.38-9.62,47.64,47.64,0,0,1,2.31-5.15l3,1.54a45.81,45.81,0,0,0-2.15,4.79,37.25,37.25,0,0,0-2.18,8.83,31.46,31.46,0,0,0-.09,6.29l-3.34.29A34.52,34.52,0,0,1,1171.93,338.68Zm18-15-.4-.25,1.77-2.85.44.28a33.69,33.69,0,0,1,13.72,17l-3.17,1.07A30.31,30.31,0,0,0,1189.93,323.66Zm-41.61-9.55c3.82-.68,10.77-1.8,14.33-1.54,2.76.19,5.28.47,7.7.83l-.5,3.31c-2.33-.35-4.77-.61-7.44-.8-2.33-.17-7.25.38-13.5,1.5Zm41.9-7.6a75,75,0,0,1,18.22-12.39l1.46,3A71.46,71.46,0,0,0,1192.49,309Z"/><path class="cls-17" d="M1230,290.9a64.2,64.2,0,0,1,10.74-.72l.06-3.35a67.78,67.78,0,0,0-11.3.76Z"/><path class="cls-19" d="M980.84,340.72c2,.09,7.54,1.94,15.62,17.2,10.32,19.5,25.4,78.4,25.4,78.4l-45,16.77-5.78-12.3-9.53-94.65S980.29,340.7,980.84,340.72Z"/><path class="cls-20" d="M921.34,332.23c12.87,0,44.72,3.78,59.5,8.5,0,0,10.86,93.33-9.77,164.25-4.62,15.87,3.82,65.8,3.82,65.8L841.51,569s15.8-120.71,9.85-140.21-6.09-87.45-6.09-87.45l30-5.17A303.26,303.26,0,0,1,921.34,332.23Z"/><path class="cls-21" d="M905.8,744s3,34,8.38,43.48-.29,25.47-.57,27.67-11.42,5.34-29.13,3.45-17.41-6-16-12.57,10.85-15.09,11.42-21.38-5.42-28.92-5.42-28.92Z"/><path class="cls-22" d="M959.84,542.68s92.07-5.12,112.63,7.33-14.61,73.56-14.61,73.56-64.06-3-189.55,4.29c-29.71,1.72-32.27-77.48-26.72-84S959.84,542.68,959.84,542.68Z"/><path class="cls-23" d="M882.28,821.26c-18.23-1.94-16-10.9-14.51-17.7.92-4.25,6.15-9.27,9.27-14,1.63,1.3,4.28,3.59,12.19,5.93,8.22,2.43,19.49-2.38,26.67-5.39a88,88,0,0,1,2.44,23.52C918.05,815.86,900.5,823.2,882.28,821.26Z"/><path class="cls-3" d="M892.34,608.54c3.68,27.84,21.89,166.4,21.89,166.4L872,780.18s-52-180.86-49.3-208.52,22.12-30,22.12-30S882.6,534.86,892.34,608.54Z"/><path class="cls-21" d="M843.82,351.73c12.47-4.68,18.57,107.68,20.25,153.93,22.08,2.12,60.57,0,70.16-.71,4.5-.33,14.9-4.14,19.38-4.73s8.76-.91,11-.52c.83.14,23.84,9.56,25.81,11.62,2.44,2.56,9,9,7.93,11.81s-12.7-7.78-12.7-7.78L980,512.18c7,6.88,20.49,16,18.56,19.25s-14-6-22.66-12.25c7.41,6.69,16.62,18.67,14.5,20.54-1.91,1.68-12.38-12.19-23.57-16.19-4.15-1.48-8.29,2.62-11.55,3.12-2.4.36-6.1,1.13-8.45.47l-12.12-3.44c-4.13.37-4.23,2.82-8.4,3.7-4.84,1-12.78,2.12-19,3.62-35.49,8.68-47.33,12.7-58.2,12.7C816.25,543.68,814.35,362.79,843.82,351.73Z"/><path class="cls-19" d="M820.15,457.22c-2.33-47.38-2-105.76,24.56-115.73,10.48-3.93,28.95,19.71,25.63,116.69C856.16,459.35,835.35,460.29,820.15,457.22Z"/><path class="cls-21" d="M1033.79,777s-6.1,10.78-1.3,19.82,30,22.33,32.62,27.23,1.6,8.36,1.6,8.36L991.89,814.1l5.73-22.55,7-15.59Z"/><path class="cls-23" d="M1036.35,801.67s-21,3.64-29.37-3-7.79-7.87-10.86-6.73c-2,.73-5,9.72-6.89,16a6.15,6.15,0,0,0,4.43,7.73l77.9,19.25c5.92,1.14,9.84-2.55,5.85-7.3-2.73-3.26-6.15-5.78-8-7.48C1063.57,814.94,1036.35,801.67,1036.35,801.67Z"/><path class="cls-3" d="M1026.46,564.5c6-12.53,19.48-28.83,43.3-19,22.71,9.37,28.81,32.39,21.64,56s-54.34,162.15-56,181.21l-37.67.25s6.85-109.73,8.53-136.26C1007.88,621.13,1016.16,586.17,1026.46,564.5Z"/><path class="cls-11" d="M1087.61,436.86H961.69a8.2,8.2,0,0,0-7.6,5.11l-38.77,94.89H845.89a3.52,3.52,0,0,0-3.51,3.53h0a3.52,3.52,0,0,0,3.51,3.52h197.59a13.79,13.79,0,0,0,12.58-8.17l39-87.27A8.23,8.23,0,0,0,1087.61,436.86Z"/><path class="cls-2" d="M1019.81,492.12c-.85,4.26-4.55,7.11-8.27,6.36s-6-4.81-5.2-9.07,4.56-7.11,8.28-6.36S1020.66,487.85,1019.81,492.12Z"/><path class="cls-24" d="M951.27,218.24a94.77,94.77,0,0,1-11.14-4.46c-4.08-2-9.36-4.27-12.7-4.78-7-1.09-19.1-.36-25.77,6.87-8.31,9-23.06,1.63-20.09,48.82,3.36,53.41,33.06,47.55,33.78,46.65s26.49-34.18,26.49-34.18,9,19.71,9,19S996.86,233.6,951.27,218.24Z"/><path class="cls-21" d="M928.72,315.28l2.57,19.09s5.74,27.5-1.65,32.8-31.42-33.59-31.42-33.59l2.54-48.36Z"/><path class="cls-6" d="M899.94,300.89c6.1,16.5,20.64,26.64,31,30.57l-2.18-16.18-28-30.06Z"/><path class="cls-21" d="M927.2,232.59a25.45,25.45,0,0,1,29.31,25.74,192.55,192.55,0,0,1-2.14,24.48c-3.4,22-18.44,41.43-28.38,39.7s-34.94-20.74-30.54-52.09C898.17,251.06,910.77,235.24,927.2,232.59Z"/><path class="cls-21" d="M902.35,274.16c-.84,4.85-4.72,8.22-8.67,7.53s-6.47-5.18-5.63-10,4.72-8.22,8.66-7.53S903.18,269.32,902.35,274.16Z"/><path class="cls-24" d="M896.71,264.14s12,3,16.48-4.74S933.6,235,953.87,241.91,936,225.09,934.41,225.09s-21.08-.14-21.08-.14-15,12.34-15.54,13.7-4.87,16.14-4.87,16.14Z"/><path class="cls-2" d="M918.7,296.39l21.87,4.18s-2.09,8.24-11.76,6.68C917,305.35,918.7,296.39,918.7,296.39Z"/><path class="cls-21" d="M1173.09,1802s-4,27.92-10.89,36.93c-2.31,3-6.53,6.85-9.3,12.31-4.32,8.51-1.93,21.17,1.25,28.15,1.63,3.58-.12,3.57,3.6,4.72,11,3.42,22.73-2.33,27.42-12.94a66,66,0,0,0,5.38-23.79c1.18-25.35,9-38.24,9-38.24Z"/><path class="cls-21" d="M1293.54,1814.74s2.47,31.48.47,41.71c-1.08,5.48-7.06,16.76-4.31,21.91s5.88,6.45,5.88,6.45l71.1,1.15c3.87.06,1.31-2.44-1.81-4.75-5.11-3.78-9.24-6.28-25.56-14.23-1.07-.51-5-3-6.34-3.85a49.5,49.5,0,0,1-10.18-9c-5.1-5.71-5.55-33.44-5.55-33.44Z"/><path class="cls-25" d="M1349.12,1396.29s9,51.11,3.07,84.62S1318.1,1825,1318.1,1825l-31.36,1.78s-6.58-129.75-5.4-147.79,10.48-48.24,10.48-48.24L1288.7,1526l39.57-137.62Z"/><path class="cls-6" d="M1257,1385.54s-24.7,37.37-30.57,68.3,4.31,126-7,166.53c-6.12,21.94-29.32,55.83-32.85,84.18s-17.36,102.62-17.36,102.62l31.34,6.25,72.84-185.48,57.14-167.66,14.64-86.34Z"/><path class="cls-3" d="M1187.31,1865.56c-17.09,3.13-28.45-6.92-34.37-14.44-4.34,8.52-6.46,21.24-3.26,28.24,2.81,6.17,11,6,17.5,6.23,6.84.26,12.14-3.57,15.53-9.56A57.12,57.12,0,0,0,1187.31,1865.56Z"/><path class="cls-3" d="M1333,1863.12c-18.81,4.85-32.71,1.56-40.49-1.6-2,5.72-4.66,12.89-3.25,17,1.73,5.07,4.19,6.21,6.36,6.27,17.17.45,62.91,1.07,76,1.24a2.15,2.15,0,0,0,1.66-3.54C1370,1878.61,1334.36,1864,1333,1863.12Z"/><path class="cls-26" d="M1461.66,1308c1.31-2.79-12.5-6.58-13-9.58s18.08-1.31,19-3.81c1.71-4.6-20.16-3.1-19.51-5.27s23.14-4.83,21.16-8.87-23,5.19-23.36,2.55,20.34-6.83,20.57-12.51c.12-3-34.44,11.64-38.06,9.61s5.72-15.41,2.92-17.83-14.92,25.55-17.11,26.37-49.6,15.15-65.72,17.52c-1.36-5.46-13.49-35.5-14.65-40.65-9.47,5.36-21.53-1.09-31.22,3.69,4.88,17.2,15.83,73.85,20.2,76.4,13.33,7.76,83.43-29.27,95-35.82s17.52-3.43,25.08-5.1S1460.35,1310.78,1461.66,1308Z"/><path class="cls-24" d="M1336.92,1141.12c3.52-16,7-32.16-2.32-49.77-7.52-14.25-20.53-22.45-35.58-24.24-42.65-5.06-33.53,34.76-93.14,43.37-18.52,2.68-35.73,5.26-51.19,14.47-27.93,16.63-38.47,43.31-20,86.78,45.35,106.44,153.85,14,170.4-4.88C1321.56,1188.17,1334.65,1151.44,1336.92,1141.12Z"/><path class="cls-3" d="M1269.79,1191.72s-21.53,2.44-34.41,16.45,20.82,126.64,23.16,144.48-22.4,67.19-22.4,67.19,84.1,16.71,106,2.28c0,0,1.92-137.84-.43-150.58s-21.86-64.54-26.54-69.63S1269.79,1191.72,1269.79,1191.72Z"/><path class="cls-21" d="M1280.63,1148.3s-.17,1-.47,2.58c-1.45,7.82-7,33.73-10.82,40.86-4.56,8.61,15.63,36.07,35.06,32.72,5.78-1-4.89-25.24-4.38-27.8,1-4.92,2.31-11.62,3.68-18.49.77-3.88,1.54-7.81,2.28-11.51,2.07-10.5,3.77-19.09,3.77-19.09Z"/><path class="cls-27" d="M1280.16,1150.88c.3-1.62.47-2.58.47-2.58l29.12-.73s-1.7,8.59-3.77,19.09c-.73,3.68-1.51,7.59-2.27,11.44-4.5-.66-9.19-2.84-13.9-6.95a36.65,36.65,0,0,1-10.53-15.63C1279.64,1153.68,1279.94,1152.1,1280.16,1150.88Z"/><path class="cls-21" d="M1298.15,1079.1a34.32,34.32,0,0,0-20.48,12.75c-8.6,11.1-17.88,45.44,3.49,64.11s42.49-2.46,45.62-24.87S1329.28,1078.29,1298.15,1079.1Z"/><path class="cls-21" d="M1333,1125.56c-1.35,5.4-4.89,9-7.9,8.15s-4.38-6-3-11.41,4.89-9,7.91-8.15S1334.36,1120.16,1333,1125.56Z"/><path class="cls-24" d="M1311.34,1079.19s-27.91,32-41,33.55-14.84,18.86-14.84,18.86,4.69-40,17.68-47.69S1311.34,1079.19,1311.34,1079.19Z"/><path class="cls-21" d="M1274.6,1120.52c1.07,5.8-1.08,11.12-4.79,11.88s-7.59-3.32-8.65-9.12,1.07-11.12,4.79-11.88S1273.54,1114.72,1274.6,1120.52Z"/><path class="cls-11" d="M1274.2,1283.12l90.18,13.19a5,5,0,0,1,4.19,5.63l-17.6,120.3a5,5,0,0,1-5.63,4.19l-90.17-13.19a5,5,0,0,1-4.19-5.63l17.6-120.3A5,5,0,0,1,1274.2,1283.12Z"/><path class="cls-16" d="M1341.46,1289a1,1,0,0,0-.85-1.14l-37.61-5.5a1,1,0,0,0-1.14.85l-.57,3.91,39.6,5.79Z"/><path class="cls-16" d="M1322.5,1280.33a6,6,0,1,0,5.07,6.8A6,6,0,0,0,1322.5,1280.33Zm-1.42,9.74a3.85,3.85,0,1,1,4.36-3.25A3.86,3.86,0,0,1,1321.08,1290.07Z"/><path class="cls-7" d="M1341,1288a1,1,0,0,1,.47,1l-.57,3.91-39.6-5.79a5,5,0,0,0,4.18,5.62l29.8,4.36a5,5,0,0,0,5.62-4.19l.57-3.91A1,1,0,0,0,1341,1288Z"/><path class="cls-2" d="M1313.42,1142.19l-20.29-.11s.42,7.71,9.35,8C1313.36,1150.47,1313.42,1142.19,1313.42,1142.19Z"/><path class="cls-21" d="M1210.94,1313.88l32.67,3.34s-.53,27.73,0,30.92c0,0,55.87,15.49,79.22,19.69,0,0,10.64-6,14.94-7.94s15.86-4,18.42-4.34,1.68,2.46-.51,3.44-7.88,3.66-9.49,6.94c0,0,4.61.5,7-.59s5.8-3.39,5.86-4.58.6-4.07,1.41-3.92c.2,0,.47,1,.75,2s.53,1.9.76,2.85c.41,1.7.88,4.18,1.07,5.3.41,2.54-1.14,9.57-1.36,12.06-.4,4.56-1.7,6.58-4.11,7.74a59.67,59.67,0,0,1-14,2.84c-11.11,1.15-21.33-2-25.79-2.55s-75.6-7.56-75.6-7.56-28.28-4.07-30.16-8.94S1210.94,1313.88,1210.94,1313.88Z"/><path class="cls-3" d="M1239.32,1204.1s-10.31,4.89-19.37,26c-8.62,20.07-11.15,120.23-11.15,120.23l34.18-5.7,17.37-46.7a85.62,85.62,0,0,0-8.86-85.17C1246.68,1206.18,1242.25,1202.21,1239.32,1204.1Z"/><rect class="cls-14" x="1778.25" y="722.95" width="145.07" height="145.07"/><rect class="cls-14" x="1948.98" y="722.95" width="283" height="19.71"/><rect class="cls-14" x="1948.98" y="764.73" width="190.98" height="19.71"/><rect class="cls-14" x="1948.98" y="806.52" width="254.2" height="19.71"/><path class="cls-21" d="M2329.36,1204.52c-5.93-4.82-51.79,15.31-51.21,22.31s-32,74.91-32,74.91l-56.3-44.89h0c-.5-1.62-5.84-19.08-6.1-22.2-.27-3.28-9.79-9-14.2-8.17s3.77,6.39,4.31,7.4c1.47,2.77-4.2,3.81-4.2,3.81s-16.07-5.15-16.42-10.4-11.34,9.18-10,11.19,27.54,23.13,31.32,27.72c0,0,72.83,83.25,78,85.43,4.55,1.91,20.77-26.78,36.1-45.83S2347.89,1219.59,2329.36,1204.52Z"/><path class="cls-28" d="M2476.3,1816.68s10,9.77,10.24,13.35.88,42-3.2,45.56-16.09,6.12-12.23,10.16c2.91,3,25.35,2.39,40.22,1.57,4.34-.24,9.78-34.86,11.5-40,2.49-7.39,8.56-24,6.29-29.19-1.1-2.51-6.39-7.67-13.85-12.49-7.84-5.06-15.34-16.34-15.34-16.34Z"/><path class="cls-21" d="M2372.63,1839.42s9,25.3,9,25.37c.67,4,3.29,13.91,3.29,17.55,0,13.69-61.73-11.62-47.9-17.69,1.25-.54,5.18-4.93,5.59-9.59.64-7.18-5.2-16.18-5.2-16.18Z"/><path class="cls-4" d="M2275.79,1368.32s-4.5,45.35-4.5,46c0,73.37-14.54,216.67-11.78,230.47,6.75,33.64,79.37,205.26,79.37,205.26l39.25-4.69L2336,1638l9.8-80.8,26.64-163.48Z"/><path class="cls-18" d="M2407.52,1408.44l7.44,43,20.15,176.91,76.74,172.91s-10.8,25.16-26.72,28.69L2363,1652.41l-75.87-227.15,2.67-50.47Z"/><path class="cls-20" d="M2260.14,1260.34l54.42,5.55s2.5-44.62,2.5-65.9c0-25.82-2.2-59.08-5.32-58.36-8.75,2-20.54,6.84-27.55,16.48C2259.91,1191.47,2260.14,1260.34,2260.14,1260.34Z"/><path class="cls-6" d="M2286.88,1195.44c-1.14,7.87-22.07,221.89-22.07,221.89,99.1,47.87,153.78,8.53,153.78,8.53s-3.24-150.29.64-170.75c2.57-13.53,5.78-103.47-3-106-11.25-3.24-24.16-6.67-38.22-8.13-12-1.25-58.65-2-67,.84C2311,1141.84,2291.67,1162.33,2286.88,1195.44Z"/><path class="cls-6" d="M2514.79,1805.45s-23.07,64.94-32.09,68.07c-2.4.84-13.91,3-16.08,8-.65,1.53,0,6.65,0,6.65h48.08s6.08-28.62,8.48-41.19c0,0,12.73-30.72,11.31-33.51S2514.79,1805.45,2514.79,1805.45Z"/><path class="cls-6" d="M2388.4,1886.86l-7.07-22.33s-14.85,6.28-22.27,5.23-21.92-5.23-21.92-5.23c-29.63,9.75-53.9,14.48-49.48,22.33H2388.4Z"/><path class="cls-21" d="M2252.5,1351.64a12.64,12.64,0,0,1-1.49-1.11c1.76-21,1.44-41.29-5.14-48.15l3.1-6.56c7.63,5.9,11.25,21.57,9.83,47a42.66,42.66,0,0,1-1,5.26C2255.58,1350.52,2253.58,1352.09,2252.5,1351.64Z"/><path class="cls-21" d="M2364.77,1099.63l6.38,42.1s-23.32,50.13-37.25,45.78c-11.68-3.65-4.49-48-4.49-48s6.37-23.82,4.46-35.74S2364.77,1099.63,2364.77,1099.63Z"/><path class="cls-6" d="M2333.87,1103.77c-1.91-11.92,30.9-4.14,30.9-4.14l.53,3.49a19.42,19.42,0,0,1-3.56,5.87c-7.33,7.89-18.79,12.62-28.69,13C2334,1115.55,2334.65,1108.66,2333.87,1103.77Z"/><path class="cls-21" d="M2370.15,1040.07c.93-.34,7.43,48-4.91,61.23s-36.4,17.64-45,7.17c-9.55-11.57-9.07-63.47,10.13-77.13S2370.15,1040.07,2370.15,1040.07Z"/><path class="cls-24" d="M2337.65,1005.51a53.39,53.39,0,0,1,28,16c6.73.8,15.89,4.52,25.34,20.18,11.63,19.25,3,40.58-10.49,51s-13.35,22.55-13.35,22.55L2365,1109a35.08,35.08,0,0,1-1.69-14.73,28.67,28.67,0,0,1,2.19-8.85c3.25-7-7-11.63-9.87-17.44-2.21-4.48-2.32-14.72-5.8-22.12l-4.17-5.65s-9.6-7.48-19-5.37S2318.61,1001.63,2337.65,1005.51Z"/><path class="cls-21" d="M2356.25,1076.55c-.09,5.89,2.58,10.71,6,10.77s6.23-4.67,6.33-10.56-2.58-10.72-6-10.77S2356.35,1070.66,2356.25,1076.55Z"/><path class="cls-2" d="M2336.2,1090.16l-18.61-1s.07,7.09,8.24,7.75C2335.79,1097.75,2336.2,1090.16,2336.2,1090.16Z"/><path class="cls-24" d="M2183.92,1200.24c4.37-4.47,8.45-9.09,12.24-13.8l81.23,79.32c5,4.87,3.28,14.73-3.84,22s-16.92,9.24-21.92,4.36l-81.22-79.32C2175,1208.91,2179.55,1204.72,2183.92,1200.24Z"/><ellipse class="cls-29" cx="2034.87" cy="1054.67" rx="204.88" ry="206.15" transform="translate(-141.54 1773.19) rotate(-45.67)"/><path class="cls-30" d="M2182.59,1196.54a204.74,204.74,0,0,1-130.44,63.84L1829.92,1034.5l.12-1.28a206,206,0,0,1,64.64-129.33Z"/><path class="cls-30" d="M2033.11,848.94l205.51,208.89q-.15,9.48-1.16,19.09a206.59,206.59,0,0,1-25.81,80.26L1934.11,875.07A203,203,0,0,1,2033.11,848.94Z"/><path class="cls-11" d="M1873,1220.38c92.08,89.93,239.19,88.64,328.56-2.88s87.18-238.6-4.9-328.53-239.19-88.65-328.57,2.87S1781,1130.45,1873,1220.38Zm18.68-19.13c-81.45-79.55-83.39-209.66-4.34-290.61s209.18-82.09,290.63-2.54,83.4,209.65,4.34,290.61S1973.18,1280.79,1891.72,1201.25Z"/><path class="cls-31" d="M1882.86,1210.32c86.5,84.47,224.67,83.26,308.62-2.7s81.89-224.12-4.61-308.6-224.67-83.26-308.62,2.7S1796.36,1125.85,1882.86,1210.32Zm8.86-9.07c-81.45-79.55-83.39-209.66-4.34-290.61s209.18-82.09,290.63-2.54,83.4,209.65,4.34,290.61S1973.18,1280.79,1891.72,1201.25Z"/><path class="cls-11" d="M2529.67,1548.35l12.62-13.09a32.9,32.9,0,0,0-.85-46.53l-234.51-227.37a32.91,32.91,0,0,0-46.53.85l-12.63,13.1a32.91,32.91,0,0,0,.85,46.53l234.51,227.36A32.91,32.91,0,0,0,2529.67,1548.35Z"/><path class="cls-32" d="M2516.74,1419.6a6.37,6.37,0,0,0,0-1.38c-1.46-14.82-13.77-139.28-15.84-144.57-1.87-4.78-57.06-83.72-57.06-83.72l-27.13,37,53.08,70.81c1.19,4.5,20.34,88.51,20.34,88.51s3.93,15.32,5.68,24.49c-.8,2.21-1.59,4.3-2.28,6a55.37,55.37,0,0,1-5.72,9.19c-2.37,3.18-6.3,10.13-6.78,12-.56,2.16-1.58,6.65-2.15,9.36s-1.36,5.87-1.49,7.34a13.9,13.9,0,0,1-1.72,4,2.37,2.37,0,0,0,2.8,3.41c1.93-.64,3.43-3.13,4.35-4.69,2.62-4.39,4-12.41,4.66-12s2.94,14,3.3,15.56,3.11,17.33,4.66,20.22,3.6,2.4,4.14.6c.47-1.56-1.71-23.66-1.71-23.66s-.27-2.82,1-1.94,3.25,20.94,4.11,23.88,2.82,4.49,4.48,2.13c2-2.87-1.45-24.15-1.45-24.15s-.39-2.67.75-2.42,2.57,17.34,3.46,18.82,3.14,2,4.21-.45c1.26-2.91-2-21.87-2-21.87s.16-1.51.88-1,3,15,4.44,16.33a1.57,1.57,0,0,0,2.27,0c2.71-1.85-1.44-15.63-1.4-22.48s-3.13-14.55-2.19-22.71C2516.46,1421.65,2516.63,1420.39,2516.74,1419.6Z"/><path class="cls-6" d="M2487,1239.93l-47.15,31.65S2413.26,1232,2399,1218c-17.87-17.63,6.51-71.65,18-68.6C2442.77,1156.2,2487,1239.93,2487,1239.93Z"/><rect class="cls-24" x="238" y="1883" width="2346" height="14"/></g></g></svg>